<svg xmlns="http://www.w3.org/2000/svg" width="445" height="392"><path d="m184.434-.238 2.384-.03C244.423-.837 294.439 17.553 336 58c21.889 21.58 40.253 51.063 48 81v4c-13.76.325-27.52.573-41.283.725-6.392.073-12.781.172-19.172.331-6.173.153-12.343.236-18.518.272q-3.526.038-7.048.152c-17.94.556-17.94.556-22.999-2.833-3.37-3.216-5.662-6.865-7.9-10.917-5.144-8.24-14.824-14.048-23.08-18.73l-2.797-1.586c-23.77-12.656-50.276-14.305-75.922-6.577-24.586 7.896-44.596 25.406-56.354 48.263-11.622 23.819-13.549 50.864-4.978 75.993 9.173 25.244 26.633 44.107 50.653 55.962 12.17 5.629 24.762 8.09 38.104 8.103l3.27.015c3.616.016 7.232.024 10.848.032l7.776.03q8.37.032 16.74.056 12.105.035 24.206.08 19.635.071 39.272.132 19.073.059 38.146.125l2.376.008 11.8.041q48.93.17 97.86.323v99a97952 97952 0 0 1-112.921.165l-2.403.002q-19.2.021-38.398.064-19.735.043-39.47.051-12.155.005-24.308.042-8.363.023-16.724.017-4.807-.004-9.613.017c-35.308.153-67.929-6.562-99.163-23.358l-1.79-.94C77.457 356.073 56.767 338.226 41 318l-1.326-1.7A190 190 0 0 1 21 287l-1.148-2.202C10.454 266.562 4.412 247.218 1 227l-.53-3.104c-.577-4.784-.67-9.491-.708-14.306l-.025-3.04q-.02-3.19-.032-6.377-.018-3.195-.062-6.39C-1.06 143.44 19.053 96.785 53 60l1.417-1.538C61.605 50.756 69.553 44.25 78 38l1.633-1.21C109.476 14.884 147.157.146 184.433-.239" fill="#FD366E"/><path d="M289 169h156v99H263c1.9-3.799 3.762-6.112 6.563-9.25 15.002-17.569 22.404-39.496 22.75-62.437l.054-2.318c-.013-8.729-1.787-16.042-3.367-24.995" fill="#FD366E"/></svg>
